<svg width="837" height="259" viewBox="0 0 837 259" fill="none" xmlns="http://www.w3.org/2000/svg">
<g clip-path="url(#clip0_4_2)">
<path d="M836.13 93.98C839.09 113.98 818.25 134.19 787.16 141.64C662.4 171.24 346.19 241.96 107.68 258.42C106.47 258.5 105.31 258.02 104.51 257.11L0.960005 139.39C-0.859996 137.32 0.0100045 134.08 2.61 133.18L54.66 115.32C55.63 114.99 56.69 115.05 57.6 115.5L193.13 181.46C241.45 167.58 285.99 155.18 327.47 144.25L195.34 34.55C193.02 32.62 193.7 28.9 196.56 27.92L277.42 0.209971C278.12 -0.0300286 278.86 -0.0700286 279.59 0.109971C293.04 3.44997 428.56 37.68 553.43 90.76C674.75 66.32 744.38 61.29 783.83 62.42C797.9 62.85 810.22 66.28 819.58 71.75C828.77 77.36 834.82 85.03 836.14 93.97L836.13 93.98Z" fill="#121659"/>
</g>
<defs>
<clipPath id="clip0_4_2">
<rect width="836.41" height="258.43" fill="white"/>
</clipPath>
</defs>
</svg>
