<svg width="216" height="129" viewBox="0 0 216 129" fill="none" xmlns="http://www.w3.org/2000/svg">
<g clip-path="url(#clip0_2_21)">
<path d="M131.107 0.0091712C132.44 0.102234 135.026 0.0343267 136.417 0.0299899C138.989 0.0219746 141.756 0.0884054 144.299 0C144.546 0.520907 144.807 1.73068 144.952 2.32459L145.874 6.10125L149.519 20.8477C155.684 20.8768 162.032 21.4499 168.166 22.083C169.72 22.2434 171.468 22.4209 173 22.6934V23.836C165.389 22.931 157.714 22.6735 150.06 23.0662C152.507 32.4751 154.785 42.138 157.123 51.5903L161.851 70.7174C162.576 73.6557 163.348 76.6402 164.037 79.5819H129.859C129.812 78.7543 129.852 77.6124 129.861 76.7617C129.878 75.0359 129.906 73.3108 129.944 71.5857L130.149 59.0278C130.359 47.8361 130.395 36.5536 130.7 25.3757C128.987 25.7869 127.027 26.1297 125.263 26.5253C122.178 27.224 119.115 28.0163 116.077 28.9012C106.34 31.7635 96.8691 35.4626 87.7701 39.9573C86.9007 40.384 84.705 41.3134 84.0795 41.8925C83.4657 42.4606 80.3409 48.7754 79.7064 49.9759L69.1022 70.0914C67.452 73.2199 65.7882 76.4976 64.0921 79.5819H43.7861C44.4451 78.5174 45.3338 77.3164 46.0609 76.2811L49.7606 70.9951C53.1388 66.1652 56.5427 61.2008 59.9951 56.4309C52.5728 61.6552 45.4939 67.3509 38.8024 73.4826C37.5265 74.6693 35.0705 76.8948 34.0318 78.1542L34.0303 64.9147C34.0306 62.5191 34.0772 59.9406 34 57.5561C34.5662 56.8845 37.4169 54.7104 38.1774 54.1374C46.988 47.6114 56.4698 42.0433 66.462 37.5278C68.2831 36.6962 70.1172 35.8935 71.9639 35.1203C73.164 34.6188 74.8818 33.9999 75.9983 33.4002C76.2445 33.2679 77.5321 31.3442 77.8196 30.9333L81.0244 26.3531L93.2453 8.90596L97.1165 3.38104C97.8665 2.30868 98.7141 1.0326 99.5155 0.0136179C101.195 0.0454093 104.407 0.111646 106.015 0.00678185C102.306 7.26354 98.3587 14.4266 94.6156 21.6687C93.4576 23.9091 92.2686 26.1646 91.0661 28.3811C103.87 24.4446 117.432 22.3871 130.75 21.2655C130.783 14.2225 130.993 7.0579 131.107 0.0091712Z" fill="#011E40"/>
<path d="M152.128 102.828C154.393 102.744 156.936 102.84 159.231 102.813C164.214 102.758 169.645 102.481 173.585 106.167C179.126 111.351 178.688 119.958 173.882 125.355C173.813 125.428 173.743 125.5 173.672 125.571C169.635 129.61 165.055 129.321 159.963 129.319L152.128 129.313V102.828ZM157.734 124.975C161.429 124.988 166.488 125.521 169.231 122.757C169.321 122.666 169.393 122.578 169.457 122.467C172.378 119.269 172.492 112.31 169.199 109.314C166.239 106.62 161.44 107.193 157.726 107.213L157.728 119.021C157.728 120.887 157.668 123.136 157.734 124.975Z" fill="#011E40"/>
<path d="M95.0941 102.819L100.312 102.819L100.312 129.308L99.256 129.312C98.37 129.312 94.6887 129.45 93.9409 129.14C93.7282 129.052 92.4536 126.951 92.1568 126.514C88.8925 121.73 85.6754 116.914 82.506 112.067C82.1354 111.498 80.6392 108.779 80.248 108.561C80.2664 110.437 80.4181 112.329 80.4271 114.226C80.4509 119.256 80.45 124.283 80.445 129.312H75.32L75.3195 102.821C76.0365 102.818 81.7741 102.731 81.9188 102.936C85.5075 108.013 89.0234 113.259 92.6272 118.337C92.9426 118.781 95.211 122.351 95.2788 122.383C95.3364 121.533 95.1021 118.68 95.0973 117.46L95.0941 102.819Z" fill="#011E40"/>
<path d="M46.1766 102.822C48.5532 102.812 50.9299 102.816 53.3064 102.831C53.4987 103.637 54.5659 105.967 54.9357 106.817L58.6442 115.24L62.6576 124.659C63.2878 126.124 64.0082 127.931 64.7259 129.313C63.9583 129.306 58.8204 129.499 58.5189 129.075C57.6399 127.838 56.6339 123.78 55.6975 122.755C55.2724 122.597 54.3061 122.658 53.8119 122.664L47.5269 122.655C46.6088 122.655 44.6136 122.596 43.8279 122.77C43.3538 123.132 41.2884 128.486 41.09 129.314C40.3291 129.308 35.6332 129.422 35.3173 129.19C36.5789 125.643 38.8067 120.596 40.2908 117.041C42.1774 112.521 44.1866 107.221 46.1766 102.822ZM45.2167 118.128L49.8341 118.126C50.7987 118.13 53.1236 118.189 53.9701 118.074C54.0616 117.84 53.905 117.6 53.7833 117.319C52.2889 113.785 50.863 110.221 49.5062 106.632C48.7023 108.961 47.8576 111.277 46.9728 113.577C46.4478 114.941 45.6597 116.793 45.2167 118.128Z" fill="#011E40"/>
<path d="M197.486 102.819C198.484 102.815 203.807 102.718 204.451 102.922C204.913 103.592 206.724 107.949 207.164 108.966L213.18 122.886C213.838 124.401 215.279 128.005 216 129.312C215.045 129.315 210.367 129.455 209.886 129.142C209.207 128.154 207.426 123.02 206.929 122.715C205.819 122.613 195.541 122.582 195.055 122.793C194.59 123.383 192.678 128.312 192.346 129.312L186.551 129.312C188.47 124.286 190.782 119.233 192.753 114.22C193.292 112.85 194.883 109.369 195.215 108.138C195.329 107.98 195.438 107.674 195.514 107.485C195.768 106.792 197.203 103.316 197.486 102.819ZM196.476 118.126L201.2 118.127C202.036 118.13 204.567 118.186 205.262 118.082L205.332 117.91C205.098 117.585 204.698 116.294 204.464 115.766C203.146 112.8 202.034 109.657 200.786 106.681C199.41 110.42 198.061 114.47 196.476 118.126Z" fill="#011E40"/>
<path d="M116.001 102.817L137.552 102.818L137.551 107.363L121.572 107.36L121.57 113.282L136.703 113.282L136.705 117.823L124.261 117.823L121.57 117.817L121.574 124.797L138.45 124.798C138.249 125.762 137.93 128.605 137.683 129.198C137.143 129.442 118.152 129.314 116.002 129.313L116.001 102.817Z" fill="#011E40"/>
<path d="M18.9576 102.818C20.5827 102.819 23.1167 102.73 24.6298 102.86V129.313L19.0647 129.312L19.0652 117.538L5.61228 117.533L5.6127 129.313L0 129.313L0.00109075 102.819L5.73084 102.818C5.42068 103.806 5.61918 111.411 5.61121 113.01L19.0734 113.009C19.0644 111.4 19.2589 103.774 18.9576 102.818Z" fill="#011E40"/>
</g>
<defs>
<clipPath id="clip0_2_21">
<rect width="216" height="129" fill="white"/>
</clipPath>
</defs>
</svg>
