<svg width="897" height="205" viewBox="0 0 897 205" fill="none" xmlns="http://www.w3.org/2000/svg">
<g clip-path="url(#clip0_2_72)">
<path d="M391.22 7.64937L410.753 7.62256C423.616 7.59509 437.115 7.1543 446.895 16.9455C460.514 30.5862 458.834 52.7976 446.054 66.1633C434.822 76.2837 424.065 75.7532 410.094 75.6836C403.694 75.6376 397.293 75.6682 390.894 75.7751C391.556 69.8139 391.236 58.1451 391.236 51.6482L391.22 7.64937ZM405.659 64.1913C417.089 64.2824 426.304 65.8843 435.262 58.2507C442.737 48.6945 443.818 31.8125 433.757 23.4618C426.817 17.7021 414.364 18.8439 405.652 19.0085L405.659 64.1913Z" fill="#011E40"/>
<path d="M245.209 7.68164L258.659 7.63757L258.666 75.6616L254.82 75.6756L242.772 75.733C231.223 59.2984 217.904 39.0594 207.425 22.0997C208.289 39.4367 207.936 58.1727 207.924 75.634L194.69 75.6997C194.708 69.0898 194.467 8.89968 195.075 7.87735L196.242 7.66031L211.616 7.6575C213.703 10.4129 215.781 13.6513 217.745 16.5425C227.092 30.3099 237.112 43.8187 245.934 57.9151C244.517 44.4543 245.365 21.9303 245.209 7.68164Z" fill="#011E40"/>
<path d="M507.062 7.65454L525.15 7.66107L554.591 75.6346L538.94 75.7161C536.485 70.4824 533.956 64.0495 531.588 58.6095L527.474 58.5364L500.694 58.5767L493.902 75.6583C488.952 75.6832 484.007 75.6657 479.062 75.6048C481.827 68.0658 485.849 58.9648 488.97 51.3995L507.062 7.65454ZM504.673 46.8575L516.642 46.8395L527.426 46.8514C524.747 40.4409 522.117 34.0103 519.535 27.5603C518.896 25.9519 516.143 18.7461 515.491 17.6956C512.31 27.5286 508.458 37.2391 504.673 46.8575Z" fill="#011E40"/>
<path d="M121.015 7.6582L138.293 7.66144C142.038 15.5637 145.933 25.2181 149.448 33.3405L167.682 75.6159L152.043 75.7145L144.818 58.544L138.515 58.5357L113.881 58.5751L107.111 75.6878C102.249 75.5712 97.0755 75.6383 92.19 75.6203C99.0541 57.5431 112.33 27.3052 120.09 8.18827C120.448 7.98287 120.757 7.80617 121.015 7.6582ZM117.826 46.8625L129.762 46.8388L140.557 46.845L132.443 26.9069C131.852 25.4335 129.333 18.7604 128.713 17.7506C125.332 27.5459 121.702 37.253 117.826 46.8625Z" fill="#011E40"/>
<path d="M299.475 7.6565L354.014 7.63757L354.02 19.3397L313.247 19.362L313.255 34.2567L351.888 34.2616L351.871 45.9996L318.826 46.0053L313.246 46.0102L313.236 63.9481L356.129 63.9564C355.6 67.8694 355.029 71.7766 354.417 75.6778L298.801 75.6935L298.786 31.135C298.785 24.7839 298.458 14.1741 298.863 8.12331L299.475 7.6565Z" fill="#011E40"/>
<path d="M50.6259 7.66568L65.1846 7.63611L65.1807 75.6464L60.5049 75.6718L50.6184 75.7348C50.7361 65.6044 50.7571 55.4731 50.6819 45.3427C39.3355 45.302 27.9888 45.3261 16.6425 45.415L16.661 75.6591C11.8944 75.7248 6.97025 75.6569 2.1902 75.6512L2.19223 30.2447C2.19173 24.7461 1.84708 13.1668 2.27003 8.12557L2.84231 7.65341L16.6512 7.65656L16.657 33.7144L50.7458 33.715C50.7615 25.0317 50.7213 16.3484 50.6259 7.66568Z" fill="#011E40"/>
<path d="M707.268 0H724.003L685.447 73.125C718.738 63.4952 752.949 57.3807 787.519 54.8817C787.922 37.819 787.397 16.5817 788.561 0H822.483C826.653 15.4852 832.448 38.1414 835.831 53.8388C855.442 53.8567 876.904 56.0951 896.301 58.4911V61.4514C879.512 59.6673 854.107 57.9848 837.31 59.5967L861.284 156.628C864.952 171.472 869.136 190.701 873.267 205H785.178C784.928 188.036 785.707 168.119 786.014 151.029L787.388 65.4375C741.492 74.8057 708.848 86.9634 667.118 107.876L615.983 205H563.689C566.792 199.758 573.667 190.588 577.409 185.246L605.279 145.498C582.862 161.611 557.846 181.241 538.529 201.18C538.279 183.639 538.507 165.747 538.428 148.158C569.02 122.106 609.594 101.034 646.698 86.323C666.418 58.1556 687.048 27.5931 707.268 0Z" fill="#011E40"/>
</g>
<defs>
<clipPath id="clip0_2_72">
<rect width="896.301" height="205" fill="white"/>
</clipPath>
</defs>
</svg>
